<svg preserveAspectRatio="none" width="100%" height="100%" overflow="visible" style="display: block;" viewBox="0 0 110 110" fill="none" xmlns="http://www.w3.org/2000/svg">
<g id="Frame 187">
<path id="Vector" d="M50.5639 0.182144C80.8201 -2.26672 107.338 20.2634 109.814 50.5194C112.287 80.775 89.7791 107.313 59.5228 109.811C29.2362 112.311 2.66174 89.771 0.185785 59.4806C-2.29017 29.1903 20.271 2.63381 50.5639 0.182144Z" fill="var(--fill-0, #FDFDFE)"/>
<path id="Vector_2" d="M50.0019 8.30736C61.9023 6.6018 75.8821 11.4167 85.0514 19.0592C85.6411 19.5528 86.348 20.335 86.4342 21.1239C85.4928 21.6765 83.441 20.0959 82.5651 19.4185C65.83 6.45338 39.8994 7.12803 24.1005 22.4191C-4.19086 49.8016 13.2112 98.3418 54.1675 99.7647C64.4127 100.048 73.0682 97.2345 81.3134 91.3977C82.7514 90.379 84.4997 88.9373 86.2101 88.6683L86.5377 88.9948C84.9169 94.1409 67.5301 100.44 62.3506 101.226C49.9984 103.084 37.4107 99.9788 27.3393 92.5878C17.2944 85.2602 10.6135 74.2048 8.79688 61.9042C6.9644 49.6857 10.0545 37.2396 17.3889 27.2968C25.3251 16.71 36.9879 10.1992 50.0019 8.30736Z" fill="var(--fill-0, #040303)"/>
<path id="Vector_3" d="M26.4859 28.8187C28.867 29.0294 47.7084 48.7182 51.0189 51.9818C51.2844 44.567 51.143 36.4249 51.1534 28.9544C58.2191 29.2724 65.9711 28.8515 73.0886 29.0504C76.0336 29.1328 80.8165 28.9064 83.5925 29.4692C81.8718 30.6784 56.3329 30.2894 52.881 30.3101C52.912 36.9435 52.9051 43.5773 52.8603 50.2107C55.8397 50.199 75.0232 49.5445 76.3853 50.7945C73.7059 51.3166 56.7639 51.3014 52.8603 51.3421C52.781 52.2905 52.2189 55.8386 53.4776 56.1693C57.0363 57.1055 74.5301 55.3885 76.4302 56.8762L76.3095 57.2621C68.8264 57.5483 60.4813 57.4124 52.9327 57.4442C53.0948 59.7167 52.9741 63.003 52.9603 65.3483L52.8293 77.332C56.5191 77.2534 82.6166 76.7923 83.5063 78.0855C80.0682 78.7907 55.7673 78.5417 51.3292 78.341C50.9775 73.3184 51.1396 67.1729 51.1499 62.0613C47.967 59.7412 45.829 57.09 42.0748 54.7713C36.978 60.7336 28.7905 75.0171 23.0203 79.6097L23.073 79.4894C25.5914 73.916 30.1378 68.7354 33.7224 63.7007C36.3576 59.9991 39.0636 56.0872 41.7951 52.5008C45.5897 54.9792 48.0636 56.5627 51.1223 59.9194L51.0534 54.2061C47.9084 51.0983 27.2125 31.2408 26.4859 28.8187Z" fill="var(--fill-0, #040303)"/>
</g>
</svg>
