<svg preserveAspectRatio="none" width="100%" height="100%" overflow="visible" style="display: block;" viewBox="0 0 47.2544 11.7911" fill="none" xmlns="http://www.w3.org/2000/svg">
<path id="AMEX" fill-rule="evenodd" clip-rule="evenodd" d="M5.33304 0L0 11.776H6.38439L7.17587 9.89838H8.98502L9.7765 11.776H16.8039V10.3429L17.4301 11.776H21.0652L21.6914 10.3126V11.776H36.3066L38.0837 9.94714L39.7477 11.776L47.2544 11.7911L41.9045 5.92085L47.2544 0H39.8641L38.1342 1.79502L36.5226 0H20.6232L19.2579 3.03947L17.8606 0H11.4896V1.38427L10.7808 0H5.33304ZM27.1577 1.67221H35.5504L38.1174 4.43889L40.7671 1.67221H43.334L39.4338 5.9192L43.334 10.1172H40.6506L38.0837 7.31842L35.4205 10.1172H27.1577V1.67221ZM29.2303 4.96432V3.42177V3.4203H34.4671L36.7521 5.88723L34.3658 8.36764H29.2303V6.68362H33.8089V4.96432H29.2303ZM6.56838 1.67221H9.68044L13.2178 9.65755V1.67221H16.627L19.3592 7.39766L21.8773 1.67221H25.2694V10.1222H23.2054L23.1885 3.50084L20.1794 10.1222H18.333L15.307 3.50084V10.1222H11.0609L10.2559 8.22785H5.90685L5.10352 10.1206H2.82848L6.56838 1.67221ZM6.64945 6.47659L8.08229 3.1019L9.51346 6.47659H6.64945Z" fill="var(--fill-0, white)"/>
</svg>
