<svg preserveAspectRatio="none" width="100%" height="100%" overflow="visible" style="display: block;" viewBox="0 0 29.8286 23.3846" fill="none" xmlns="http://www.w3.org/2000/svg">
<g id="DinersClub">
<path id="Vector" d="M17.4746 23.3845C23.9333 23.4151 29.8286 18.1718 29.8286 11.7935C29.8286 4.81892 23.9333 -0.00260236 17.4746 1.05378e-06H11.9159C5.38017 -0.00260236 0 4.82022 0 11.7935C0 18.1731 5.38017 23.4151 11.9159 23.3845H17.4746Z" fill="var(--fill-0, #0079BE)"/>
<path id="Vector_2" d="M11.9424 0.966511C5.96956 0.968464 1.13033 5.75874 1.12834 11.6711C1.13033 17.5828 5.96956 22.3731 11.9424 22.375C17.916 22.3731 22.7572 17.5828 22.7579 11.6711C22.7572 5.75874 17.9167 0.968464 11.9424 0.966511ZM5.08813 11.6711C5.08688 10.3041 5.50619 8.96855 6.29128 7.83896C7.07636 6.70937 8.1907 5.8383 9.48865 5.33959V18.0019C8.19059 17.5036 7.07613 16.6327 6.291 15.5032C5.50588 14.3736 5.08665 13.0381 5.08813 11.6711V11.6711ZM14.3956 18.0045V5.33894C15.6945 5.83694 16.8098 6.70793 17.5955 7.8379C18.3811 8.96786 18.8005 10.3041 18.7987 11.6717C18.8002 13.0393 18.3807 14.3754 17.5951 15.5054C16.8095 16.6353 15.6943 17.5063 14.3956 18.0045V18.0045Z" fill="var(--fill-0, white)"/>
<path id="Vector_3" d="M17.4746 23.3845C23.9333 23.4151 29.8286 18.1718 29.8286 11.7935C29.8286 4.81892 23.9333 -0.00260236 17.4746 1.05378e-06H11.9159C5.38017 -0.00260236 0 4.82022 0 11.7935C0 18.1731 5.38017 23.4151 11.9159 23.3845H17.4746Z" fill="var(--fill-0, #0079BE)"/>
<path id="Vector_4" d="M11.9424 0.966511C5.96956 0.968464 1.13033 5.75874 1.12834 11.6711C1.13033 17.5828 5.96956 22.3731 11.9424 22.375C17.916 22.3731 22.7572 17.5828 22.7579 11.6711C22.7572 5.75874 17.9167 0.968464 11.9424 0.966511ZM5.08813 11.6711C5.08688 10.3041 5.50619 8.96855 6.29128 7.83896C7.07636 6.70937 8.1907 5.8383 9.48865 5.33959V18.0019C8.19059 17.5036 7.07613 16.6327 6.291 15.5032C5.50588 14.3736 5.08665 13.0381 5.08813 11.6711V11.6711ZM14.3956 18.0045V5.33894C15.6945 5.83694 16.8098 6.70793 17.5955 7.8379C18.3811 8.96786 18.8005 10.3041 18.7987 11.6717C18.8002 13.0393 18.3807 14.3754 17.5951 15.5054C16.8095 16.6353 15.6943 17.5063 14.3956 18.0045V18.0045Z" fill="var(--fill-0, white)"/>
</g>
</svg>
