<svg preserveAspectRatio="none" width="100%" height="100%" overflow="visible" style="display: block;" viewBox="0 0 50.7857 22.7502" fill="none" xmlns="http://www.w3.org/2000/svg">
<g id="Discover">
<path id="Stripe" d="M18.6214 22.7502L50.7857 13.4065C50.7857 18.5669 46.6024 22.7502 41.442 22.7502H18.6214Z" fill="var(--fill-0, #FD6020)"/>
<path id="DISC-VER" d="M18.9336 0.180288C19.5529 0.180288 20.2611 0.267619 20.792 0.616811V2.36291C20.3496 1.83911 19.6414 1.48986 18.9336 1.48986C17.5182 1.57738 16.3686 2.80013 16.457 4.19689V4.37072C16.457 5.76761 17.6068 6.81601 19.0225 6.81603C19.7302 6.81603 20.3496 6.46668 20.792 5.94298V7.68908C20.1728 7.95094 19.5534 8.12557 18.8457 8.1256C16.6338 8.1256 14.8643 6.29166 14.8643 4.109C14.8643 1.83924 16.6335 0.00593694 18.9336 0.180288ZM32.8252 5.41857L34.9482 0.180288H36.541L33.2676 8.1256H32.4707L29.1973 0.180288H30.79L32.8252 5.41857ZM11.8555 0.00548316C12.6516 0.00548316 13.4481 0.35487 14.0674 0.87853L13.2715 1.92638C12.9177 1.57728 12.4754 1.3152 12.0332 1.31505C11.5024 1.22776 11.0593 1.66436 10.9707 2.1881C10.9707 2.62462 11.2364 2.79984 12.1211 3.14904C13.8905 3.84745 14.3334 4.37099 14.4219 5.41857V5.68029C14.3334 7.07714 13.1831 8.12493 11.7676 8.03771C10.7059 8.03771 9.64414 7.5137 9.11328 6.55333L10.0859 5.59337C10.3513 6.20446 10.971 6.64114 11.6787 6.64123H11.7676C12.2983 6.64111 12.8289 6.11736 12.8291 5.50646C12.8291 5.15724 12.6521 4.89494 12.3867 4.72033C12.0329 4.54574 11.679 4.37112 11.3252 4.2838C9.90957 3.84727 9.4668 3.23578 9.4668 2.1881V2.10119C9.55526 0.879039 10.617 -0.0815726 11.8555 0.00548316ZM2.6543 0.180288C4.77769 0.267592 6.45851 2.01371 6.37012 4.109C6.37012 5.24393 5.83977 6.292 4.95508 7.07775C4.15879 7.68889 3.18515 8.0381 2.21191 7.9508H0V0.180288H2.6543ZM8.49414 7.9508H6.98926V0.180288H8.49414V7.9508ZM41.4951 1.48986H38.7529V3.23595H41.4072V4.54552H38.7529V6.64123H41.4951V7.9508H37.249V0.180288H41.4951V1.48986ZM44.6807 0.180288C46.45 0.180288 47.4236 0.965945 47.4238 2.44982C47.5123 3.58467 46.7158 4.54556 45.6543 4.72033L48.043 7.9508H46.1846L44.1494 4.80724H43.9727V7.9508H42.4688V0.180288H44.6807ZM3.98145 2.10119C3.45059 1.66468 2.65408 1.40256 1.94629 1.48986H1.50391V6.64123H1.94629C2.65408 6.72853 3.45059 6.46641 3.98145 6.0299C4.51221 5.50614 4.77727 4.80769 4.77734 4.02208C4.77732 3.3237 4.51223 2.62499 3.98145 2.10119ZM43.9727 3.75939H44.415C45.3882 3.75939 45.831 3.32336 45.8311 2.53771C45.831 1.83931 45.3882 1.40294 44.415 1.40294H43.9727V3.75939Z" fill="var(--fill-0, black)"/>
<path id="O" fill-rule="evenodd" clip-rule="evenodd" d="M25.3044 0.000231213C23.0924 0.000231213 21.2344 1.74636 21.2344 4.01632C21.2344 6.19898 23.004 8.03241 25.3044 8.11972C27.6047 8.20702 29.3743 6.37359 29.4628 4.10363C29.3743 1.83366 27.6047 0.000231213 25.3044 0.000231213V0.000231213Z" fill="var(--fill-0, #FD6020)"/>
</g>
</svg>
