<svg preserveAspectRatio="none" width="100%" height="100%" overflow="visible" style="display: block;" viewBox="0 0 13.4717 13.9158" fill="none" xmlns="http://www.w3.org/2000/svg">
<g id="G">
<path id="Blue" d="M13.4717 7.11274C13.4717 6.63923 13.4335 6.16572 13.3572 5.70187H6.87544V8.37866H10.5888C10.4361 9.23871 9.9397 10.0118 9.2142 10.495V12.2344H11.4289C12.7271 11.0265 13.4717 9.23871 13.4717 7.11274Z" fill="var(--fill-0, #4285F4)"/>
<path id="Green" d="M6.87574 13.9158C8.72766 13.9158 10.2932 13.2974 11.4292 12.2344L9.2145 10.495C8.59401 10.9202 7.8017 11.1617 6.87574 11.1617C5.0811 11.1617 3.56329 9.93448 3.01917 8.29169H0.737684V10.0891C1.90229 12.4373 4.27924 13.9158 6.87574 13.9158Z" fill="var(--fill-0, #34A853)"/>
<path id="Yellow" d="M3.01941 8.29171C2.73299 7.43166 2.73299 6.4943 3.01941 5.62459V3.83684H0.737565C-0.245826 5.79853 -0.245826 8.11777 0.737565 10.0795L3.01941 8.29171Z" fill="var(--fill-0, #FBBC04)"/>
<path id="Red" d="M6.87574 2.75452C7.85897 2.73519 8.80403 3.11206 9.51043 3.79817L11.4769 1.80749C10.2264 0.628548 8.58447 -0.018905 6.87574 0.000421932C4.27924 0.000421932 1.90229 1.4886 0.737684 3.83683L3.01917 5.63423C3.56329 3.98178 5.0811 2.75452 6.87574 2.75452Z" fill="var(--fill-0, #EA4335)"/>
</g>
</svg>
