<svg preserveAspectRatio="none" width="100%" height="100%" overflow="visible" style="display: block;" viewBox="0 0 37.2861 22.4346" fill="none" xmlns="http://www.w3.org/2000/svg">
<g id="Mastercard">
<path id="Left" d="M25.9775 0C32.2228 0 37.2861 5.0226 37.2861 11.2178C37.2859 17.4128 32.2226 22.4346 25.9775 22.4346C23.1775 22.4345 20.6175 21.4222 18.6426 19.75C16.6677 21.4221 14.1076 22.4346 11.3076 22.4346C5.0627 22.4344 0.000230682 17.4126 0 11.2178C0 5.02272 5.06256 0.00018457 11.3076 0C14.1073 0 16.6677 1.01174 18.6426 2.68359C20.6174 1.01162 23.1777 4.95109e-05 25.9775 0Z" fill="var(--fill-0, #ED0006)"/>
<path id="Right" d="M25.9778 1.58946e-07C32.223 3.88878e-05 37.2854 5.02263 37.2854 11.2178C37.2852 17.4127 32.2229 22.4345 25.9778 22.4346C23.178 22.4346 20.6177 21.4229 18.6429 19.751C21.073 17.6936 22.6154 14.6354 22.6155 11.2178C22.6155 7.79975 21.0734 4.74008 18.6429 2.68262C20.6177 1.01093 23.1782 1.58946e-07 25.9778 1.58946e-07Z" fill="var(--fill-0, #F9A000)"/>
<path id="Middle" d="M18.6425 2.68363C21.0729 4.74109 22.6162 7.79994 22.6162 11.2178C22.616 14.6353 21.0725 17.6927 18.6425 19.75C16.2128 17.6927 14.67 14.6351 14.6699 11.2178C14.6699 7.80014 16.2124 4.74109 18.6425 2.68363Z" fill="var(--fill-0, #FF5E00)"/>
</g>
</svg>
