<svg preserveAspectRatio="none" width="100%" height="100%" overflow="visible" style="display: block;" viewBox="0 0 33.1428 28.3027" fill="none" xmlns="http://www.w3.org/2000/svg">
<g id="PayPal">
<path id="Vector" fill-rule="evenodd" clip-rule="evenodd" d="M3.97715 19.6427H1.39928C1.22287 19.6427 1.07284 19.7684 1.04533 19.9391L0.00270426 26.4213C-0.0180188 26.5493 0.0829983 26.6646 0.215308 26.6646H1.44601C1.62242 26.6646 1.77245 26.5388 1.79996 26.3678L2.08117 24.6195C2.10829 24.4482 2.25869 24.3227 2.43473 24.3227H3.2508C4.94894 24.3227 5.92892 23.5169 6.185 21.9201C6.3003 21.2215 6.18988 20.6726 5.85618 20.2881C5.48987 19.8661 4.83992 19.6427 3.97715 19.6427ZM4.27457 22.0102C4.13362 22.9173 3.42684 22.9173 2.74345 22.9173H2.35444L2.62735 21.2232C2.64355 21.1209 2.73401 21.0455 2.83957 21.0455H3.01786C3.48338 21.0455 3.92256 21.0455 4.1495 21.3056C4.28469 21.461 4.3262 21.6915 4.27457 22.0102ZM11.6831 21.9811H10.4486C10.3434 21.9811 10.2525 22.0566 10.2363 22.159L10.1817 22.4975L10.0953 22.3749C9.8281 21.9945 9.23223 21.8674 8.6374 21.8674C7.27313 21.8674 6.10807 22.8805 5.88113 24.3018C5.76321 25.0107 5.93084 25.6885 6.34094 26.1613C6.7172 26.596 7.25551 26.7771 7.89587 26.7771C8.99499 26.7771 9.60465 26.084 9.60465 26.084L9.54953 26.4205C9.52877 26.5491 9.62977 26.6644 9.76129 26.6644H10.8733C11.0502 26.6644 11.1993 26.5387 11.2273 26.3676L11.8945 22.2244C11.9156 22.0969 11.8149 21.9811 11.6831 21.9811ZM9.96224 24.3372C9.8431 25.0288 9.28334 25.493 8.56954 25.493C8.21108 25.493 7.92448 25.3803 7.74062 25.1667C7.55816 24.9546 7.48873 24.6525 7.54682 24.3162C7.65811 23.6304 8.2273 23.1511 8.93028 23.1511C9.28072 23.1511 9.56575 23.2652 9.75344 23.4808C9.94149 23.6985 10.0161 24.0023 9.96224 24.3372ZM17.0172 21.981H18.2577C18.4315 21.981 18.5328 22.172 18.4341 22.3118L14.3082 28.1519C14.2413 28.2465 14.1313 28.3027 14.0137 28.3027H12.7747C12.6002 28.3027 12.4984 28.1101 12.5994 27.97L13.8841 26.1918L12.5177 22.2596C12.4705 22.1229 12.5734 21.981 12.7217 21.981H13.9406C14.099 21.981 14.2387 22.0829 14.2844 22.2316L15.0096 24.6065L16.7206 22.1351C16.7876 22.0386 16.8989 21.981 17.0172 21.981Z" fill="var(--fill-0, #253B80)"/>
<path id="Vector_2" fill-rule="evenodd" clip-rule="evenodd" d="M30.4673 26.4213L31.5253 19.8205C31.5415 19.7181 31.632 19.6426 31.7372 19.6423H32.9283C33.0598 19.6423 33.1608 19.7579 33.14 19.8859L32.0967 26.3678C32.0695 26.5388 31.9195 26.6645 31.7428 26.6645H30.6791C30.5476 26.6645 30.4466 26.5492 30.4673 26.4213ZM22.3649 19.6426H19.7866C19.6106 19.6426 19.4605 19.7684 19.433 19.9391L18.3904 26.4213C18.3696 26.5492 18.4706 26.6645 18.6023 26.6645H19.9252C20.0482 26.6645 20.1534 26.5766 20.1726 26.4569L20.4684 24.6194C20.4957 24.4482 20.646 24.3226 20.822 24.3226H21.6377C23.3362 24.3226 24.316 23.5168 24.5722 21.92C24.6879 21.2214 24.5768 20.6725 24.2432 20.288C23.8771 19.866 23.2277 19.6426 22.3649 19.6426ZM22.6623 22.0102C22.5217 22.9173 21.8149 22.9173 21.1311 22.9173H20.7425L21.0158 21.2232C21.032 21.1209 21.1217 21.0454 21.2276 21.0454H21.4059C21.8711 21.0454 22.3107 21.0454 22.5374 21.3056C22.6728 21.4609 22.714 21.6915 22.6623 22.0102ZM30.0701 21.9811H28.8365C28.7305 21.9811 28.6404 22.0565 28.6246 22.159L28.57 22.4975L28.4833 22.3749C28.216 21.9944 27.6205 21.8673 27.0257 21.8673C25.6614 21.8673 24.4967 22.8805 24.2698 24.3018C24.1522 25.0106 24.3191 25.6885 24.7292 26.1613C25.1062 26.5959 25.6438 26.7771 26.2842 26.7771C27.3833 26.7771 27.9928 26.084 27.9928 26.084L27.9378 26.4204C27.9171 26.5491 28.0181 26.6644 28.1505 26.6644H29.262C29.438 26.6644 29.588 26.5386 29.6155 26.3676L30.2831 22.2243C30.3035 22.0969 30.2025 21.9811 30.0701 21.9811ZM28.3495 24.3372C28.231 25.0287 27.6706 25.493 26.9566 25.493C26.5988 25.493 26.3117 25.3803 26.1277 25.1666C25.9452 24.9545 25.8767 24.6524 25.9341 24.3161C26.0459 23.6304 26.6144 23.1511 27.3173 23.1511C27.668 23.1511 27.9528 23.2652 28.1407 23.4807C28.3294 23.6985 28.4041 24.0023 28.3495 24.3372Z" fill="var(--fill-0, #179BD7)"/>
<path id="Vector_3" d="M13.5173 17.3237L13.8343 15.3497L13.1283 15.3336H9.75736L12.1 0.767423C12.1072 0.723445 12.1309 0.682444 12.1655 0.653331C12.2 0.624217 12.2443 0.608172 12.2904 0.608172H17.9744C19.8614 0.608172 21.1636 0.99323 21.8435 1.75324C22.1622 2.10978 22.3653 2.48235 22.4635 2.89236C22.5664 3.3226 22.5683 3.83659 22.4677 4.4635L22.4603 4.50926V4.91094L22.7792 5.08803C23.0477 5.22766 23.2608 5.38751 23.4245 5.57054C23.6973 5.87537 23.8736 6.26281 23.9481 6.72214C24.025 7.19455 23.9996 7.75668 23.8736 8.3931C23.7282 9.12519 23.493 9.76279 23.1755 10.2845C22.8834 10.7652 22.5113 11.1639 22.0696 11.473C21.6478 11.7665 21.1467 11.9894 20.5801 12.132C20.031 12.2721 19.4051 12.343 18.7185 12.343H18.2761C17.9599 12.343 17.6525 12.4547 17.4115 12.655C17.1697 12.8594 17.0096 13.1385 16.9605 13.444L16.9272 13.6217L16.3673 17.1008L16.3418 17.2286C16.3352 17.2691 16.3237 17.2893 16.3068 17.303C16.2916 17.3153 16.2698 17.3237 16.2485 17.3237H13.5173Z" fill="var(--fill-0, #253B80)"/>
<path id="Vector_4" d="M23.081 4.55579C23.0641 4.66216 23.0447 4.77089 23.0229 4.88261C22.2732 8.65653 19.7088 9.96027 16.4334 9.96027H14.7658C14.3653 9.96027 14.0277 10.2455 13.9653 10.6329L13.1114 15.943L12.8697 17.4481C12.829 17.7024 13.0291 17.9318 13.2908 17.9318H16.2487C16.5989 17.9318 16.8964 17.6822 16.9515 17.3435L16.9806 17.1961L17.5376 13.7306L17.5733 13.5405C17.6278 13.2006 17.9259 12.9511 18.2761 12.9511H18.7185C21.5842 12.9511 23.8276 11.8102 24.4833 8.50857C24.7572 7.12937 24.6153 5.97778 23.8906 5.16784C23.6713 4.92361 23.3992 4.72098 23.081 4.55579Z" fill="var(--fill-0, #179BD7)"/>
<path id="Vector_5" d="M22.2966 4.24943C22.1821 4.21674 22.0639 4.18703 21.9426 4.16029C21.8209 4.13416 21.696 4.11098 21.5676 4.09078C21.1179 4.01946 20.6253 3.9856 20.0974 3.9856H15.6423C15.5326 3.9856 15.4285 4.00995 15.3351 4.05393C15.1297 4.15078 14.977 4.34154 14.94 4.57506L13.9922 10.4615L13.9649 10.6332C14.0274 10.2457 14.3649 9.96051 14.7654 9.96051H16.433C19.7084 9.96051 22.273 8.6562 23.0226 4.88287C23.0449 4.77116 23.0637 4.66242 23.0806 4.55606C22.891 4.45741 22.6855 4.37303 22.4644 4.30112C22.4099 4.2833 22.3536 4.26607 22.2966 4.24943Z" fill="var(--fill-0, #222D65)"/>
<path id="Vector_6" d="M14.9401 4.57493C14.9771 4.34139 15.1299 4.15065 15.3352 4.05439C15.4292 4.01041 15.5328 3.98605 15.6424 3.98605H20.0976C20.6255 3.98605 21.1181 4.01992 21.5676 4.09123C21.6962 4.11143 21.8211 4.13461 21.9428 4.16075C22.0641 4.1875 22.1822 4.21721 22.2968 4.24988C22.3536 4.26652 22.41 4.28375 22.4651 4.30099C22.6863 4.37289 22.8918 4.45787 23.0814 4.55591C23.3045 3.16127 23.0796 2.2117 22.3107 1.35185C21.463 0.405259 19.9328 0 17.9749 0H12.2907C11.8908 0 11.5497 0.285214 11.4878 0.673248L9.12036 15.3892C9.07361 15.6803 9.30265 15.9431 9.60198 15.9431H13.1113L13.9924 10.4613L14.9401 4.57493Z" fill="var(--fill-0, #253B80)"/>
</g>
</svg>
