<svg preserveAspectRatio="none" width="100%" height="100%" overflow="visible" style="display: block;" viewBox="0 0 42.3429 16.8507" fill="none" xmlns="http://www.w3.org/2000/svg">
<path id="Shop Pay" d="M24.7615 4.97451C24.7615 7.47718 23.0031 9.26372 20.5457 9.26372H18.2307C18.2051 9.26372 18.1798 9.26876 18.1562 9.27854C18.1326 9.28833 18.1112 9.30268 18.0931 9.32075C18.0751 9.33883 18.0608 9.36028 18.0511 9.38388C18.0414 9.40748 18.0365 9.43275 18.0366 9.45825V12.7475C18.0366 12.799 18.0162 12.8483 17.9799 12.8847C17.9435 12.9212 17.8942 12.9418 17.8426 12.9421H16.2226C16.1841 12.9419 16.1465 12.9304 16.1145 12.909C16.0825 12.8876 16.0575 12.8572 16.0427 12.8218C16.033 12.7985 16.0278 12.7736 16.0277 12.7485V0.878906C16.0275 0.853404 16.0325 0.828128 16.0422 0.804531C16.0519 0.780935 16.0661 0.759481 16.0842 0.741405C16.1022 0.723328 16.1236 0.708983 16.1472 0.699195C16.1708 0.689408 16.1961 0.684369 16.2217 0.68437H20.5561C23.0031 0.68155 24.7615 2.46809 24.7615 4.97451V4.97451ZM22.7412 4.97451C22.7412 3.53569 21.7579 2.48407 20.4242 2.48407H18.2307C18.2051 2.48407 18.1798 2.48911 18.1562 2.49889C18.1326 2.50868 18.1112 2.52303 18.0931 2.5411C18.0751 2.55918 18.0608 2.58063 18.0511 2.60423C18.0414 2.62783 18.0365 2.6531 18.0366 2.67861V7.25914C18.0366 7.31049 18.0571 7.35973 18.0935 7.39604C18.1299 7.43234 18.1792 7.45274 18.2307 7.45274H20.4242C21.7579 7.46214 22.7412 6.40957 22.7412 4.97451ZM25.2418 10.6649C25.225 10.2811 25.3046 9.89918 25.4734 9.55385C25.6422 9.20853 25.8947 8.91076 26.2082 8.68763C26.8402 8.21303 27.8282 7.96775 29.2786 7.917L30.8233 7.86249V7.40763C30.8233 6.49604 30.2111 6.11072 29.2278 6.11072C28.2445 6.11072 27.621 6.45844 27.4778 7.02702C27.4661 7.067 27.4415 7.10199 27.4077 7.12648C27.374 7.15097 27.333 7.16359 27.2913 7.16235H25.7655C25.7374 7.16311 25.7095 7.15769 25.6837 7.14646C25.658 7.13524 25.635 7.11848 25.6165 7.0974C25.598 7.07631 25.5843 7.05141 25.5766 7.02446C25.5688 6.99751 25.5671 6.96919 25.5715 6.9415C25.7975 5.59384 26.9212 4.56946 29.2975 4.56946C31.8254 4.56946 32.7381 5.7442 32.7381 7.98654V12.7475C32.7376 12.7995 32.7165 12.8491 32.6794 12.8855C32.6424 12.922 32.5923 12.9423 32.5403 12.9421H31.0022C30.9508 12.9419 30.9014 12.9217 30.8647 12.8857C30.8467 12.8676 30.8325 12.8462 30.8228 12.8227C30.8131 12.7991 30.8081 12.7739 30.8082 12.7485V12.3923C30.8088 12.3628 30.8004 12.3339 30.7841 12.3094C30.7679 12.2848 30.7446 12.2657 30.7173 12.2546C30.6899 12.2435 30.6599 12.2409 30.631 12.2472C30.6022 12.2535 30.576 12.2684 30.5558 12.2898C30.0943 12.7908 29.3493 13.1526 28.1559 13.1526C26.4003 13.1526 25.2418 12.241 25.2418 10.6649V10.6649ZM30.8233 9.63306V9.26372L28.8228 9.36897C27.7688 9.42254 27.1557 9.85955 27.1557 10.5954C27.1557 11.2608 27.718 11.6292 28.7003 11.6292C30.0349 11.6292 30.8233 10.9102 30.8233 9.63306V9.63306ZM34.2827 16.5396V15.16C34.283 15.131 34.2897 15.1025 34.3023 15.0764C34.3148 15.0504 34.333 15.0274 34.3555 15.0091C34.3779 14.9908 34.4041 14.9776 34.4323 14.9706C34.4604 14.9635 34.4897 14.9627 34.5182 14.9682C34.7536 15.0124 34.9938 15.035 35.234 15.0359C35.6469 15.0559 36.0546 14.9372 36.3918 14.6987C36.7291 14.4601 36.9764 14.1156 37.0942 13.7202L37.194 13.4026C37.2085 13.3599 37.2085 13.3137 37.194 13.271L33.9889 5.05722C33.9773 5.02744 33.9731 4.9953 33.9767 4.96356C33.9803 4.93182 33.9916 4.90143 34.0096 4.875C34.0275 4.84856 34.0517 4.82688 34.0799 4.8118C34.1081 4.79672 34.1396 4.7887 34.1716 4.78844H35.7256C35.7653 4.78884 35.804 4.80116 35.8366 4.82379C35.8692 4.84641 35.8942 4.8783 35.9084 4.91531L38.085 10.7082C38.0986 10.7467 38.1239 10.78 38.1573 10.8035C38.1907 10.8271 38.2306 10.8398 38.2715 10.8398C38.3124 10.8398 38.3523 10.8271 38.3857 10.8035C38.4191 10.78 38.4443 10.7467 38.458 10.7082L40.3483 4.93128C40.3614 4.8918 40.3866 4.85745 40.4205 4.83315C40.4543 4.80884 40.495 4.79583 40.5366 4.79595H42.1444C42.1766 4.79615 42.2083 4.80412 42.2367 4.81917C42.2652 4.83423 42.2896 4.85594 42.3078 4.88243C42.326 4.90893 42.3376 4.93943 42.3414 4.97134C42.3453 5.00325 42.3413 5.03561 42.3299 5.06567L38.9016 14.1873C38.1123 16.3074 36.7589 16.8497 35.2688 16.8497C34.9863 16.8572 34.7037 16.8234 34.4306 16.7491C34.3852 16.7372 34.3454 16.7096 34.3184 16.6712C34.2914 16.6329 34.2787 16.5863 34.2827 16.5396V16.5396ZM5.61733 0.000202379C3.57546 -0.0143132 1.60566 0.752508 0.113123 2.14292C0.0492954 2.20125 0.00950433 2.28119 0.00149579 2.36718C-0.00651275 2.45317 0.0178343 2.53906 0.0697972 2.60812L0.993758 3.86744C1.02371 3.90937 1.06251 3.94424 1.10742 3.9696C1.15233 3.99496 1.20227 4.01019 1.25371 4.01422C1.30516 4.01825 1.35686 4.01098 1.40519 3.99293C1.45352 3.97488 1.4973 3.94648 1.53344 3.90973C2.07012 3.37437 2.70836 2.95111 3.41085 2.66469C4.11335 2.37827 4.86602 2.23444 5.62486 2.2416C8.79327 2.2416 10.4481 4.62115 10.4481 6.97063C10.4481 9.52498 8.70944 11.3219 6.2107 11.3576C4.27989 11.3576 2.82473 10.0804 2.82473 8.39347C2.82674 7.9673 2.9235 7.54689 3.10803 7.16254C3.29257 6.7782 3.56027 6.4395 3.89185 6.17087C3.96195 6.11244 4.00625 6.02889 4.01524 5.9382C4.02422 5.84751 3.99716 5.75692 3.93988 5.68594L2.96883 4.46233C2.93946 4.42532 2.90297 4.39457 2.86149 4.37187C2.82001 4.34917 2.7744 4.335 2.72735 4.33018C2.68029 4.32536 2.63274 4.33 2.58751 4.34382C2.54228 4.35764 2.50028 4.38036 2.464 4.41064C1.86763 4.89007 1.38637 5.49661 1.05553 6.18579C0.724687 6.87497 0.552647 7.62931 0.552028 8.39347C0.552028 11.2974 3.02534 13.5755 6.19375 13.5943H6.23613C9.9979 13.5454 12.718 10.7655 12.718 6.96593C12.718 3.59208 10.2277 0.000202379 5.61827 0.000202379H5.61733Z" fill="var(--fill-0, white)"/>
</svg>
