<svg preserveAspectRatio="none" width="100%" height="100%" overflow="visible" style="display: block;" viewBox="0 0 41.5286 17.2005" fill="none" xmlns="http://www.w3.org/2000/svg">
<path id="Stripe" fill-rule="evenodd" clip-rule="evenodd" d="M22.4832 2.33091L19.5877 2.95095V0.608561L22.4832 0V2.33091ZM10.7166 1.33193L7.90184 1.92901L7.89031 11.1263C7.89031 12.8257 9.17078 14.0773 10.8781 14.0773C11.824 14.0773 12.5162 13.9051 12.8968 13.6984V11.3675C12.5277 11.5167 10.705 12.0449 10.705 10.3455V6.26932H12.8968V3.82359H10.705L10.7166 1.33193ZM41.5286 8.88729C41.5286 5.94782 40.0981 3.6284 37.3642 3.6284C34.6187 3.6284 32.9575 5.94783 32.9575 8.86433C32.9575 12.3205 34.9186 14.0658 37.7333 14.0658C39.1061 14.0658 40.1443 13.7558 40.9287 13.3195V11.023C40.1443 11.4134 39.2445 11.6545 38.1025 11.6545C36.9835 11.6545 35.9914 11.2641 35.8645 9.90922H41.5055C41.5055 9.84597 41.5096 9.70233 41.5144 9.53681L41.5144 9.53652C41.5209 9.31147 41.5286 9.04604 41.5286 8.88729ZM35.8299 7.79648C35.8299 6.49898 36.6258 5.95932 37.3526 5.95932C38.0563 5.95932 38.8061 6.49898 38.8061 7.79648H35.8299ZM3.89909 6.12009C3.28769 6.12009 2.91855 6.29232 2.91855 6.74013C2.91855 7.22907 3.55385 7.44415 4.34202 7.71098C5.62691 8.14597 7.31806 8.71851 7.32521 10.8393C7.32521 12.8946 5.6756 14.0773 3.27616 14.0773C2.28408 14.0773 1.19972 13.8821 0.126893 13.4228V10.69C1.0959 11.2182 2.31869 11.6086 3.27616 11.6086C3.92216 11.6086 4.38359 11.4364 4.38359 10.9082C4.38359 10.3666 3.69491 10.1191 2.86348 9.82021C1.59728 9.36506 0 8.79091 0 6.87792C0 4.84555 1.55733 3.62842 3.89909 3.62842C4.85656 3.62842 5.80249 3.77769 6.75996 4.15661V6.85495C5.88324 6.38418 4.77581 6.12009 3.89909 6.12009ZM16.4846 4.6733L16.3 3.82361H13.8083V13.8706H16.6923V7.06162C17.3729 6.17748 18.5264 6.33823 18.8841 6.46454V3.82361C18.5149 3.68582 17.1652 3.43321 16.4846 4.6733ZM19.5875 3.82362H22.483V13.8706H19.5875V3.82362ZM26.2436 4.52402C26.6473 4.15659 27.3741 3.6284 28.5046 3.6284C30.5234 3.6284 32.4268 5.44261 32.4383 8.77248C32.4383 12.4124 30.558 14.0658 28.4931 14.0658C27.4779 14.0658 26.8665 13.641 26.4512 13.3424L26.4397 16.5919L23.5558 17.2005V3.81212H26.0936L26.2436 4.52402ZM26.4512 11C26.7281 11.2986 27.1318 11.5397 27.8124 11.5397C28.8737 11.5397 29.5889 10.3915 29.5889 8.85284C29.5889 7.34866 28.8622 6.17747 27.8124 6.17747C27.1549 6.17747 26.7396 6.40711 26.4397 6.7401L26.4512 11Z" fill="var(--fill-0, #6461FC)"/>
</svg>
