<svg preserveAspectRatio="none" width="100%" height="100%" overflow="visible" style="display: block;" viewBox="0 0 39.9 12.7061" fill="none" xmlns="http://www.w3.org/2000/svg">
<path id="visa-logo" fill-rule="evenodd" clip-rule="evenodd" d="M9.97542 12.6071H6.52232L3.93292 2.75011C3.81002 2.29668 3.54906 1.89583 3.1652 1.7069C2.20722 1.23212 1.15159 0.854268 -9.53674e-08 0.663699V0.284203H5.56266C6.33039 0.284203 6.90619 0.854268 7.00215 1.51633L8.34568 8.62655L11.7971 0.284203H15.1542L9.97542 12.6071ZM17.0735 12.6071H13.8124L16.4977 0.284203H19.7589L17.0735 12.6071ZM23.978 3.69803C24.074 3.03433 24.6498 2.65483 25.3216 2.65483C26.3772 2.55955 27.5271 2.75012 28.4868 3.22325L29.0626 0.570066C28.1029 0.19057 27.0473 3.97364e-07 26.0893 3.97364e-07C22.9241 3.97364e-07 20.6209 1.70691 20.6209 4.07589C20.6209 5.87808 22.2523 6.82436 23.4039 7.39443C24.6498 7.96285 25.1296 8.34234 25.0337 8.91077C25.0337 9.7634 24.074 10.1429 23.116 10.1429C21.9644 10.1429 20.8129 9.85869 19.7589 9.38391L19.1831 12.0387C20.3347 12.5119 21.5806 12.7024 22.7322 12.7024C26.2812 12.7961 28.4868 11.0908 28.4868 8.53127C28.4868 5.30802 23.978 5.11909 23.978 3.69803V3.69803ZM39.9 12.6071L37.3106 0.284203H34.5293C33.9535 0.284203 33.3777 0.663699 33.1857 1.23212L28.3908 12.6071H31.7479L32.418 10.8066H36.5429L36.9267 12.6071H39.9ZM35.0091 3.60276L35.9671 8.24707H33.2817L35.0091 3.60276Z" fill="var(--fill-0, #172B85)"/>
</svg>
