<svg preserveAspectRatio="none" width="100%" height="100%" overflow="visible" style="display: block;" viewBox="0 0 128 128" fill="none" xmlns="http://www.w3.org/2000/svg">
<g id="Binoculars">
<path id="Vector" d="M72.6646 80.4223C71.98 78.5832 71.6059 76.5931 71.6059 74.5155L69.2254 48.6415M72.6646 80.4223C71.9796 82.2997 71.6059 84.3269 71.6059 86.4413C71.6059 96.1387 79.4672 104 89.1645 104C98.8619 104 106.723 96.1387 106.723 86.4413C106.723 84.1361 106.279 81.9347 105.471 79.9179M72.6646 80.4223C75.1214 73.6895 81.5816 68.8827 89.1645 68.8827C96.095 68.8827 102.088 72.8978 104.943 78.7288C105.133 79.1173 105.31 79.5139 105.471 79.9179M55.283 80.4223C56.0011 78.5339 56.3942 76.4854 56.3942 74.3451L58.9447 48.6443M69.2254 48.6415C67.4784 46.3531 67.1024 44.8766 64.0011 44.8766C60.8985 44.8766 60.6916 46.3543 58.9447 48.6443M69.2254 48.6415V40.9328C69.2254 31.5811 76.8065 24 86.1582 24C95.51 24 102.563 31.5811 102.563 40.9328L104.943 74.5155L105.471 79.9179M58.9447 48.6443V41.1032C58.9447 31.6574 51.2873 24 41.8415 24C32.3956 24 25.4168 31.6574 25.4168 41.1032L22.8664 74.3451L22.1878 80.8442M71.6059 74.9795C69.8589 72.6911 67.1024 71.2147 64.0011 71.2147C60.8985 71.2147 58.1411 72.6924 56.3942 74.9823M22.1878 80.8442C21.597 82.6021 21.2769 84.4843 21.2769 86.4413C21.2769 96.1387 29.1381 104 38.8355 104C48.5329 104 56.3942 96.1387 56.3942 86.4413C56.3942 76.7439 48.5329 68.8827 38.8355 68.8827C31.747 68.8827 25.6395 73.0832 22.8664 79.1308C22.6114 79.687 22.3846 80.2587 22.1878 80.8442ZM64.0011 65.5606V62.7366M100.139 86.4413C100.139 92.5022 95.2254 97.4155 89.1645 97.4155C83.1037 97.4155 78.1904 92.5022 78.1904 86.4413C78.1904 80.3805 83.1037 75.4672 89.1645 75.4672C95.2254 75.4672 100.139 80.3805 100.139 86.4413ZM49.8097 86.4413C49.8097 92.5022 44.8964 97.4155 38.8355 97.4155C32.7747 97.4155 27.8614 92.5022 27.8614 86.4413C27.8614 80.3805 32.7747 75.4672 38.8355 75.4672C44.8964 75.4672 49.8097 80.3805 49.8097 86.4413Z" stroke="var(--stroke-0, #B8D7FF)" stroke-width="4" stroke-linecap="round" stroke-linejoin="round"/>
</g>
</svg>
