<svg preserveAspectRatio="none" width="100%" height="100%" overflow="visible" style="display: block;" viewBox="0 0 106 106" fill="none" xmlns="http://www.w3.org/2000/svg">
<g id="material-symbols:flightsmode">
<path id="Vector" d="M43.8354 93.3021L32.9042 72.9854L12.5875 62.0542L20.4271 54.325L36.4375 57.0854L47.7 45.8229L12.6979 30.9167L21.9729 21.4208L64.4833 28.9292L78.175 15.2375C79.8681 13.5444 81.966 12.6979 84.4687 12.6979C86.9715 12.6979 89.0694 13.5444 90.7625 15.2375C92.4555 16.9306 93.3021 19.0093 93.3021 21.4738C93.3021 23.9383 92.4555 26.0186 90.7625 27.7146L76.9604 41.5167L84.4687 83.9167L75.0833 93.3021L60.0667 58.3L48.8042 69.5625L51.675 85.4625L43.8354 93.3021Z" fill="var(--fill-0, #C5DEFF)"/>
</g>
</svg>
