<svg preserveAspectRatio="none" width="100%" height="100%" overflow="visible" style="display: block;" viewBox="0 0 30 30" fill="none" xmlns="http://www.w3.org/2000/svg">
<g id="line-md:instagram">
<g id="Group">
<path id="Vector" d="M20 3.75C23.45 3.75 26.25 6.55 26.25 10V20C26.25 23.45 23.45 26.25 20 26.25H10C6.55 26.25 3.75 23.45 3.75 20V10C3.75 6.55 6.55 3.75 10 3.75H15H20Z" stroke="var(--stroke-0, white)" stroke-width="2.5" stroke-linecap="round" stroke-linejoin="round"/>
<path id="Vector_2" d="M15 10C17.7625 10 20 12.2375 20 15C20 17.7625 17.7625 20 15 20C12.2375 20 10 17.7625 10 15C10 12.2375 12.2375 10 15 10Z" stroke="var(--stroke-0, white)" stroke-width="2.5" stroke-linecap="round" stroke-linejoin="round"/>
</g>
<path id="Vector_3" d="M21.25 10.625C22.2855 10.625 23.125 9.78553 23.125 8.75C23.125 7.71447 22.2855 6.875 21.25 6.875C20.2145 6.875 19.375 7.71447 19.375 8.75C19.375 9.78553 20.2145 10.625 21.25 10.625Z" fill="var(--fill-0, white)"/>
</g>
</svg>
