<svg preserveAspectRatio="none" width="100%" height="100%" overflow="visible" style="display: block;" viewBox="0 0 30 30" fill="none" xmlns="http://www.w3.org/2000/svg">
<g id="ri:linkedin-fill">
<path id="Vector" d="M8.675 6.25C8.67467 6.91304 8.41096 7.54879 7.94188 8.0174C7.47281 8.48601 6.83679 8.74908 6.17375 8.74875C5.51071 8.74842 4.87496 8.48471 4.40635 8.01563C3.93774 7.54656 3.67467 6.91054 3.675 6.2475C3.67533 5.58446 3.93904 4.94871 4.40812 4.4801C4.87719 4.01149 5.51321 3.74842 6.17625 3.74875C6.83929 3.74908 7.47504 4.01279 7.94365 4.48187C8.41226 4.95094 8.67533 5.58696 8.675 6.25ZM8.75 10.6H3.75V26.25H8.75V10.6ZM16.65 10.6H11.675V26.25H16.6V18.0375C16.6 13.4625 22.5625 13.0375 22.5625 18.0375V26.25H27.5V16.3375C27.5 8.625 18.675 8.9125 16.6 12.7L16.65 10.6Z" fill="var(--fill-0, white)"/>
</g>
</svg>
