<svg preserveAspectRatio="none" width="100%" height="100%" overflow="visible" style="display: block;" viewBox="0 0 30 29" fill="none" xmlns="http://www.w3.org/2000/svg">
<g id="mynaui:facebook-solid">
<path id="Vector" d="M18.125 3.32292C14.5487 3.32292 11.5625 6.20962 11.5625 9.66667V11.7812H8.125C8.04212 11.7812 7.96263 11.8131 7.90403 11.8697C7.84542 11.9264 7.8125 12.0032 7.8125 12.0833V16.9167C7.8125 17.0834 7.9525 17.2187 8.125 17.2187H11.5625V25.375C11.5625 25.5417 11.7025 25.6771 11.875 25.6771H16.875C16.9579 25.6771 17.0374 25.6453 17.096 25.5886C17.1546 25.532 17.1875 25.4551 17.1875 25.375V17.2187H20.625C20.6947 17.2186 20.7623 17.1959 20.8171 17.1543C20.8719 17.1127 20.9108 17.0546 20.9275 16.9892L22.1775 12.1558C22.1889 12.1114 22.1896 12.0651 22.1798 12.0203C22.1699 11.9755 22.1496 11.9335 22.1205 11.8974C22.0913 11.8614 22.0541 11.8322 22.0116 11.812C21.969 11.7919 21.9223 11.7814 21.875 11.7812H17.1875V9.66667C17.1907 9.42729 17.2905 9.19859 17.4657 9.02931C17.6408 8.86003 17.8774 8.76355 18.125 8.76042H21.875C21.9579 8.76042 22.0374 8.72859 22.096 8.67194C22.1546 8.61529 22.1875 8.53845 22.1875 8.45833V3.625C22.1875 3.54488 22.1546 3.46805 22.096 3.41139C22.0374 3.35474 21.9579 3.32292 21.875 3.32292H18.125Z" fill="var(--fill-0, white)"/>
</g>
</svg>
