<svg preserveAspectRatio="none" width="100%" height="100%" overflow="visible" style="display: block;" viewBox="0 0 15.1215 18.0667" fill="none" xmlns="http://www.w3.org/2000/svg">
<g id="Mark">
<path id="Vector" d="M14.4215 7.98956C14.4215 13.3684 8.91233 16.6821 7.76744 17.3133C7.70402 17.3483 7.63277 17.3667 7.56033 17.3667C7.4879 17.3667 7.41665 17.3483 7.35322 17.3133C6.20748 16.6821 0.7 13.3684 0.7 7.98956C0.7 3.70158 3.27279 0.7 7.56076 0.7C11.8487 0.7 14.4215 3.70158 14.4215 7.98956Z" stroke="var(--stroke-0, white)" stroke-width="1.4" stroke-linecap="round" stroke-linejoin="round"/>
<path id="Vector_2" d="M4.13041 7.56076C4.13041 8.47055 4.49182 9.34308 5.13514 9.9864C5.77846 10.6297 6.65099 10.9911 7.56079 10.9911C8.47058 10.9911 9.34311 10.6297 9.98643 9.9864C10.6298 9.34308 10.9912 8.47055 10.9912 7.56076C10.9912 6.65097 10.6298 5.77843 9.98643 5.13511C9.34311 4.49179 8.47058 4.13038 7.56079 4.13038C6.65099 4.13038 5.77846 4.49179 5.13514 5.13511C4.49182 5.77843 4.13041 6.65097 4.13041 7.56076V7.56076Z" stroke="var(--stroke-0, white)" stroke-width="1.4" stroke-linecap="round" stroke-linejoin="round"/>
</g>
</svg>
