<svg preserveAspectRatio="none" width="100%" height="100%" overflow="visible" style="display: block;" viewBox="0 0 128 128" fill="none" xmlns="http://www.w3.org/2000/svg">
<g id="Saturn">
<path id="Vector" d="M96.3921 71.3353C107.423 84.2883 112.568 95.1737 108.495 99.0609C104.829 102.56 94.5304 99.5893 81.6873 92.1638M96.3921 71.3353C99.7319 56.8995 93.198 41.4487 79.5225 34.0866C70.275 29.1083 59.738 28.8924 50.7266 32.5943M96.3921 71.3353C95.8094 73.8538 94.9262 76.3415 93.7279 78.7499M50.7266 32.5943C36.9481 24.3004 25.7506 20.8208 21.8935 24.5021C18.0015 28.2166 22.5267 38.3213 32.5615 50.514M50.7266 32.5943C48.4398 33.5337 46.2513 34.7254 44.2071 36.1555M44.2071 36.1555C36.1947 31.21 30.3468 28.9375 28.66 30.5474C26.9538 32.1758 29.8428 37.4534 35.8418 44.5744M44.2071 36.1555C41.0062 38.3948 38.1589 41.2188 35.8418 44.5744M35.8418 44.5744C35.1367 45.5956 34.4806 46.6661 33.8786 47.7843C33.3948 48.6829 32.9561 49.5936 32.5615 50.514M35.8418 44.5744C41.3039 51.058 49.3443 59.0698 58.8419 67.2466C69.1694 76.138 79.1933 83.4797 86.9083 88.057M32.5615 50.514C38.2015 57.3668 45.5819 64.8791 54.1866 72.2872C63.6789 80.4595 73.2342 87.2766 81.6873 92.1638M32.5615 50.514C25.7603 66.3773 32.0881 85.0903 47.5763 93.4282C58.7157 99.4251 71.7261 98.5114 81.6873 92.1638M81.6873 92.1638C83.5442 90.9805 85.2952 89.6084 86.9083 88.057M86.9083 88.057C89.3715 85.6881 91.5132 82.9013 93.2202 79.7305C93.3953 79.4052 93.5646 79.0783 93.7279 78.7499M86.9083 88.057C94.0807 92.3124 99.2576 94.1786 100.828 92.6798C102.526 91.0588 99.6714 85.8217 93.7279 78.7499" stroke="var(--stroke-0, black)" stroke-width="4" stroke-linejoin="round"/>
</g>
</svg>
