<svg preserveAspectRatio="none" width="100%" height="100%" overflow="visible" style="display: block;" viewBox="0 0 92 74" fill="none" xmlns="http://www.w3.org/2000/svg">
<g id="fa6-solid:shuttle-space">
<path id="Vector" d="M18.6875 69.375C24.5237 69.375 30.245 67.7852 35.2475 64.7645L50.6 55.5H18.4V69.375H18.6875ZM50.6 18.5L35.2475 9.23555C30.245 6.21484 24.5237 4.625 18.6875 4.625H18.4V18.5H50.6ZM13.8 18.5V4.625H11.5C7.69062 4.625 4.6 7.73242 4.6 11.5625V18.5H5.75C2.57312 18.5 0 21.0871 0 24.2812V49.7188C0 52.9129 2.57312 55.5 5.75 55.5H4.6V62.4375C4.6 66.2676 7.69062 69.375 11.5 69.375H13.8V55.5H14.95C18.7162 55.5 22.0512 53.6789 24.15 50.875H65.55C75.5119 50.875 84.9562 47.5941 91.31 39.0812C92.23 37.8527 92.23 36.1473 91.31 34.9188C84.9562 26.4059 75.5119 23.125 65.55 23.125H24.15C22.0512 20.3211 18.7162 18.5 14.95 18.5H13.8ZM73.6 35.2078V38.8066C73.6 41.6395 71.3144 43.952 68.4825 43.952C68.1231 43.952 67.85 43.6629 67.85 43.316V30.7273C67.85 30.366 68.1375 30.0914 68.4825 30.0914C71.3 30.0914 73.6 32.3895 73.6 35.2367V35.2078Z" fill="var(--fill-0, #C5DEFF)"/>
</g>
</svg>
