<svg preserveAspectRatio="none" width="100%" height="100%" overflow="visible" style="display: block;" viewBox="0 0 128 128" fill="none" xmlns="http://www.w3.org/2000/svg">
<g id="flat-color-icons:sports-mode">
<path id="Vector" d="M74.6667 37.3333C82.0305 37.3333 88 31.3638 88 24C88 16.6362 82.0305 10.6667 74.6667 10.6667C67.3029 10.6667 61.3333 16.6362 61.3333 24C61.3333 31.3638 67.3029 37.3333 74.6667 37.3333Z" fill="var(--fill-0, #B8D7FF)"/>
<path id="Vector_2" d="M77.3333 72.8L52.8 61.8667C50.1333 60.5333 48.8 64.5333 47.4667 67.2C46.1333 69.8667 36.5333 86.4 37.3333 89.3333C38.1333 91.7333 40.2667 93.0667 42.4 93.0667C42.9333 93.0667 43.4667 93.0667 44 92.8L76.8 82.6667C78.9333 82.1333 80.5333 80 80.5333 77.8667C80.5333 75.7333 79.2 73.6 77.3333 72.8Z" fill="var(--fill-0, #B8D7FF)"/>
<path id="Vector_3" d="M71.4667 40.5333L65.6 37.8667C62.1333 36.2667 57.8667 37.8667 56.2667 41.3333L24.5333 109.6C23.2 112.267 24.5333 115.467 27.2 116.8C28 117.067 28.8 117.333 29.6 117.333C31.7333 117.333 33.6 116.267 34.4 114.4C34.4 114.4 60 78.9333 62.1333 74.6667C64.2667 70.4 75.2 49.8667 75.2 49.8667C76.5333 46.4 75.2 42.1333 71.4667 40.5333Z" fill="var(--fill-0, #B8D7FF)"/>
<path id="Vector_4" d="M108 41.8667C106.133 39.7333 102.667 39.2 100.533 41.0667L87.2 52.2667L70.1333 42.9333C67.2 41.3333 63.2 41.8667 61.3333 45.3333C59.2 48.8 60.2667 53.0667 63.4667 54.4L85.6 63.4667C86.4 63.7333 87.2 64 88 64C89.3333 64 90.4 63.4667 91.4667 62.6667L107.467 49.3333C109.6 47.4667 109.867 44.2667 108 41.8667ZM31.2 61.6L40.2667 48L52.5333 49.6L56.5333 41.3333C57.6 38.9333 59.7333 37.6 62.1333 37.3333H37.6C35.7333 37.3333 34.1333 38.1333 33.0667 39.7333L22.4 55.7333C20.8 58.1333 21.3333 61.6 24 63.2C24.5333 63.7333 25.6 64 26.6667 64C28.2667 64 30.1333 63.2 31.2 61.6Z" fill="var(--fill-0, #B8D7FF)"/>
</g>
</svg>
