<svg preserveAspectRatio="none" width="100%" height="100%" overflow="visible" style="display: block;" viewBox="0 0 128 128" fill="none" xmlns="http://www.w3.org/2000/svg">
<g id="token:space">
<path id="Vector" fill-rule="evenodd" clip-rule="evenodd" d="M76.3413 96.5547C84.2987 94.2507 91.0187 87.2533 94.7733 80.48C98.0756 74.3542 99.488 67.3869 98.832 60.4587C98.7253 59.3778 98.4978 58.3253 98.1493 57.3013C97.984 56.752 99.3813 54.8907 99.9307 54.1493L100.091 53.9307C103.462 49.3153 106.792 44.6698 110.08 39.9947C110.656 39.2622 111.148 38.4764 111.557 37.6373L111.915 37.3067C112.057 37.1396 112.021 37.0684 111.808 37.0933C105.941 37.3351 99.952 37.6907 93.84 38.16C91.8382 38.3164 89.7902 38.3804 87.696 38.352C87.4836 38.3487 87.2723 38.3201 87.0667 38.2667C86.9431 38.2343 86.8352 38.1586 86.7627 38.0533C82.016 32.0427 65.152 27.792 55.056 30.5867C50.1066 31.8937 45.4899 34.2337 41.5097 37.4529C37.5294 40.672 34.2758 44.6973 31.9627 49.264C28.7996 55.9137 27.8017 63.388 29.1093 70.6347C30.1013 76.6933 24.7253 82.1547 20.144 86.816C18.608 88.3787 17.1253 89.8347 16.0533 91.2053C15.9502 91.3973 15.9964 91.4791 16.192 91.4507C19.232 91.2729 22.2684 91.0435 25.3013 90.7627C30.1013 90.3253 34.9013 89.9093 39.728 89.9413C40.304 89.9413 40.688 90.272 41.0133 90.5973L41.4827 91.0133C46.4929 94.519 52.2348 96.8392 58.2741 97.7983C64.3133 98.7574 70.4915 98.3356 76.3413 96.5547ZM43.152 79.9787C44.304 80.0853 45.1253 80.2827 45.9787 81.1573C48.3848 83.5471 51.2481 85.4272 54.3973 86.6853C57.5466 87.9434 60.9171 88.5535 64.3076 88.4794C67.698 88.4052 71.0387 87.6482 74.1299 86.2536C77.2211 84.859 79.9994 82.8554 82.2987 80.3627C84.9943 77.2894 86.8937 73.601 87.8302 69.6218C88.7667 65.6426 88.7114 61.4942 87.6693 57.5413C87.3973 56.8053 87.12 55.9787 87.3973 55.4613L91.344 48.4373C91.3293 48.3978 91.3032 48.3636 91.269 48.3389C91.2348 48.3142 91.1941 48.3002 91.152 48.2987C88.08 48.576 85.4773 48.4907 83.28 48.0853C82.1813 47.8613 81.5787 47.2053 80.9227 46.5173C77.6734 43.5689 73.7341 41.486 69.468 40.4607C65.2018 39.4354 60.7462 39.5007 56.512 40.6507C55.9093 40.8107 55.392 41.0613 54.8373 41.3067L53.8773 41.744C43.184 45.888 37.6427 57.3227 39.264 68.0747C39.3173 68.544 39.4507 69.0347 39.584 69.5307C39.8933 70.736 40.224 72.0267 39.808 73.0933C38.9089 75.4211 37.6998 77.617 36.2133 79.6213C36.2068 79.6793 36.2194 79.7378 36.2493 79.7879C36.2791 79.838 36.3246 79.8769 36.3787 79.8987C36.4053 79.952 36.4853 79.952 36.544 79.952C38.7525 79.7459 40.9755 79.7459 43.184 79.952L43.152 79.9787Z" fill="var(--fill-0, #036963)"/>
<path id="Vector_2" d="M22.8587 48.912C23.7751 48.9376 24.6874 48.7791 25.5415 48.4461C26.3957 48.113 27.1744 47.6121 27.8316 46.973C28.4889 46.3338 29.0113 45.5693 29.368 44.7248C29.7248 43.8803 29.9086 42.9728 29.9086 42.056C29.9086 41.1392 29.7248 40.2317 29.368 39.3872C29.0113 38.5427 28.4889 37.7782 27.8316 37.139C27.1744 36.4999 26.3957 35.999 25.5415 35.6659C24.6874 35.3329 23.7751 35.1744 22.8587 35.2C21.0734 35.2498 19.378 35.994 18.1329 37.2743C16.8878 38.5546 16.1912 40.2701 16.1912 42.056C16.1912 43.8419 16.8878 45.5574 18.1329 46.8377C19.378 48.118 21.0734 48.8622 22.8587 48.912Z" fill="var(--fill-0, #036963)"/>
</g>
</svg>
