<svg preserveAspectRatio="none" width="100%" height="100%" overflow="visible" style="display: block;" viewBox="0 0 128 128" fill="none" xmlns="http://www.w3.org/2000/svg">
<g id="Toxic">
<path id="Vector" d="M43.3639 90.9881L41.986 92.4377C42.3792 92.8114 42.9072 93.0094 43.4492 92.9862C43.9911 92.9631 44.5004 92.7209 44.8603 92.315L43.3639 90.9881ZM30.391 68.5182L29.99 66.5588C29.4586 66.6676 28.9942 66.9875 28.7032 67.4452C28.4122 67.9029 28.3195 68.4592 28.4466 68.9866L30.391 68.5182ZM46.4675 65.2284L48.1995 64.2284C47.7691 63.4829 46.9099 63.0964 46.0665 63.269L46.4675 65.2284ZM54.2512 78.7103L55.7476 80.0372C56.3188 79.3931 56.4137 78.4558 55.9833 77.7103L54.2512 78.7103ZM34.8716 80.9023L36.6039 79.9026L34.8716 80.9023ZM97.6092 68.5182L99.5535 68.9867C99.6806 68.4594 99.588 67.9031 99.297 67.4453C99.006 66.9875 98.5416 66.6676 98.0102 66.5588L97.6092 68.5182ZM84.6362 90.9881L83.1398 92.315C83.4997 92.7208 84.009 92.9631 84.5509 92.9863C85.0928 93.0094 85.6209 92.8114 86.014 92.4378L84.6362 90.9881ZM73.7489 78.7103L72.0169 77.7103C71.5864 78.4558 71.6813 79.3932 72.2525 80.0373L73.7489 78.7103ZM81.5327 65.2284L81.9336 63.269C81.0903 63.0964 80.2311 63.4829 79.8006 64.2284L81.5327 65.2284ZM93.1208 80.9156L94.8526 81.916L93.1208 80.9156ZM51.0271 32.7753L50.4607 30.8572C49.9404 31.0108 49.5049 31.3692 49.254 31.8501C49.003 32.331 48.9582 32.8932 49.1297 33.4078L51.0271 32.7753ZM76.973 32.7753L78.8704 33.4078C79.0419 32.8932 78.9971 32.331 78.7462 31.8501C78.4953 31.3693 78.0598 31.0109 77.5396 30.8572L76.973 32.7753ZM71.7838 48.3429V50.3429C72.6447 50.3429 73.409 49.792 73.6812 48.9753L71.7838 48.3429ZM56.2163 48.3429L54.3189 48.9753C54.5911 49.792 55.3554 50.3429 56.2163 50.3429V48.3429ZM64.0078 30.4637L64.0082 28.4637L64.0078 30.4637ZM30.391 68.5182L30.7919 70.4776L46.8684 67.1878L46.4675 65.2284L46.0665 63.269L29.99 66.5588L30.391 68.5182ZM46.4675 65.2284L44.7354 66.2284L52.5192 79.7103L54.2512 78.7103L55.9833 77.7103L48.1995 64.2284L46.4675 65.2284ZM54.2512 78.7103L52.7548 77.3834L41.8675 89.6611L43.3639 90.9881L44.8603 92.315L55.7476 80.0372L54.2512 78.7103ZM43.3639 90.9881C44.7418 89.5385 44.742 89.5386 44.742 89.5386C44.742 89.5386 44.7421 89.5387 44.7421 89.5387C44.7421 89.5387 44.742 89.5386 44.7418 89.5384C44.7414 89.538 44.7407 89.5373 44.7396 89.5363C44.7374 89.5343 44.7339 89.5308 44.7289 89.5261C44.7191 89.5167 44.7037 89.502 44.6832 89.4823C44.6421 89.4428 44.5804 89.3831 44.5001 89.305C44.3396 89.1486 44.1054 88.9184 43.8155 88.6275C43.2351 88.0451 42.4347 87.2228 41.5568 86.2657C39.7727 84.3205 37.7753 81.9326 36.6039 79.9026L34.8716 80.9023L33.1394 81.9019C34.5416 84.3317 36.7904 86.9867 38.609 88.9694C39.5325 89.9763 40.3725 90.8393 40.9823 91.4511C41.2875 91.7573 41.5358 92.0015 41.709 92.1702C41.7957 92.2546 41.8636 92.3202 41.9105 92.3653C41.9339 92.3879 41.9521 92.4053 41.9648 92.4174C41.9712 92.4235 41.9761 92.4282 41.9797 92.4316C41.9814 92.4333 41.9828 92.4346 41.9839 92.4357C41.9844 92.4362 41.9849 92.4366 41.9852 92.4369C41.9854 92.4371 41.9856 92.4373 41.9857 92.4374C41.9858 92.4375 41.986 92.4377 43.3639 90.9881ZM34.8716 80.9023L36.6039 79.9026C35.4338 77.875 34.3663 74.9545 33.5751 72.4396C33.1858 71.2021 32.8744 70.099 32.6606 69.3061C32.5538 68.91 32.4716 68.5925 32.4166 68.3755C32.389 68.2671 32.3683 68.1839 32.3547 68.1286C32.3478 68.101 32.3428 68.0804 32.3396 68.0672C32.3379 68.0606 32.3368 68.0558 32.3361 68.0529C32.3357 68.0514 32.3355 68.0504 32.3354 68.0499C32.3353 68.0497 32.3353 68.0495 32.3353 68.0495C32.3353 68.0495 32.3353 68.0496 32.3353 68.0496C32.3353 68.0497 32.3353 68.0498 30.391 68.5182C28.4466 68.9866 28.4466 68.9868 28.4467 68.987C28.4467 68.9871 28.4468 68.9874 28.4468 68.9876C28.4469 68.9881 28.4471 68.9887 28.4472 68.9894C28.4476 68.9908 28.448 68.9927 28.4486 68.9951C28.4498 68.9998 28.4514 69.0065 28.4535 69.015C28.4576 69.032 28.4636 69.0565 28.4714 69.088C28.487 69.1511 28.5098 69.2426 28.5395 69.3597C28.599 69.5938 28.6861 69.9306 28.7985 70.3475C29.0232 71.1806 29.35 72.3382 29.7595 73.64C30.566 76.2035 31.7388 79.475 33.1394 81.9019L34.8716 80.9023ZM84.6362 90.9881L86.1326 89.6611L75.2453 77.3834L73.7489 78.7103L72.2525 80.0373L83.1398 92.315L84.6362 90.9881ZM73.7489 78.7103L75.481 79.7103L83.2647 66.2284L81.5327 65.2284L79.8006 64.2284L72.0169 77.7103L73.7489 78.7103ZM81.5327 65.2284L81.1317 67.1878L97.2082 70.4776L97.6092 68.5182L98.0102 66.5588L81.9336 63.269L81.5327 65.2284ZM97.6092 68.5182C95.6648 68.0497 95.6649 68.0496 95.6649 68.0495C95.6649 68.0495 95.6649 68.0494 95.6649 68.0494C95.6649 68.0494 95.6649 68.0495 95.6648 68.0498C95.6647 68.0503 95.6645 68.0513 95.6641 68.0527C95.6634 68.0556 95.6622 68.0604 95.6606 68.0671C95.6574 68.0803 95.6523 68.101 95.6455 68.1286C95.6318 68.1839 95.6111 68.2672 95.5835 68.3758C95.5283 68.593 95.4461 68.9109 95.3391 69.3074C95.1249 70.1012 94.813 71.2056 94.4231 72.4444C93.6305 74.9621 92.5612 77.8858 91.389 79.9153L93.1208 80.9156L94.8526 81.916C96.2558 79.4868 97.4307 76.2118 98.2385 73.6454C98.6487 72.3423 98.976 71.1832 99.201 70.3493C99.3136 69.9318 99.4009 69.5947 99.4604 69.3603C99.4902 69.2431 99.513 69.1515 99.5287 69.0883C99.5365 69.0567 99.5425 69.0323 99.5466 69.0152C99.5487 69.0067 99.5503 69 99.5515 68.9953C99.5521 68.9929 99.5525 68.991 99.5529 68.9896C99.553 68.9888 99.5532 68.9883 99.5533 68.9878C99.5533 68.9876 99.5534 68.9873 99.5534 68.9872C99.5535 68.9869 99.5535 68.9867 97.6092 68.5182ZM93.1208 80.9156L91.389 79.9153C90.218 81.9424 88.2225 84.3272 86.4401 86.2698C85.5631 87.2257 84.7635 88.0469 84.1837 88.6286C83.8941 88.9191 83.6602 89.149 83.4999 89.3052C83.4197 89.3832 83.358 89.4428 83.317 89.4822C83.2965 89.5019 83.2812 89.5166 83.2713 89.526C83.2664 89.5308 83.2628 89.5342 83.2607 89.5362C83.2596 89.5372 83.2588 89.538 83.2585 89.5383C83.2583 89.5385 83.2582 89.5386 83.2582 89.5386C83.2582 89.5386 83.2582 89.5385 83.2582 89.5385C83.2583 89.5385 83.2584 89.5384 84.6362 90.9881C86.014 92.4378 86.0142 92.4376 86.0143 92.4375C86.0144 92.4374 86.0146 92.4372 86.0148 92.437C86.0152 92.4367 86.0156 92.4363 86.0161 92.4358C86.0172 92.4348 86.0186 92.4334 86.0204 92.4317C86.0239 92.4284 86.0289 92.4236 86.0352 92.4176C86.0479 92.4055 86.0661 92.3881 86.0895 92.3655C86.1363 92.3205 86.2042 92.255 86.2907 92.1707C86.4637 92.0022 86.7118 91.7583 87.0167 91.4525C87.6258 90.8414 88.465 89.9796 89.3875 88.974C91.2043 86.9939 93.4511 84.3424 94.8526 81.916L93.1208 80.9156ZM76.973 32.7753L75.0757 32.1429L69.8865 47.7104L71.7838 48.3429L73.6812 48.9753L78.8704 33.4078L76.973 32.7753ZM71.7838 48.3429V46.3429H56.2163V48.3429V50.3429H71.7838V48.3429ZM56.2163 48.3429L58.1137 47.7104L52.9245 32.1429L51.0271 32.7753L49.1297 33.4078L54.3189 48.9753L56.2163 48.3429ZM51.0271 32.7753C51.5935 34.6934 51.5934 34.6935 51.5933 34.6935C51.5933 34.6935 51.5932 34.6935 51.5932 34.6935C51.5932 34.6935 51.5934 34.6935 51.5936 34.6934C51.5941 34.6933 51.5951 34.693 51.5965 34.6925C51.5994 34.6917 51.6041 34.6903 51.6107 34.6884C51.6238 34.6846 51.6442 34.6786 51.6715 34.6707C51.7262 34.6549 51.8088 34.6312 51.9166 34.6008C52.1323 34.54 52.4487 34.4523 52.8456 34.3467C53.6402 34.1352 54.7525 33.8532 56.0204 33.5715C58.597 32.999 61.6637 32.4632 64.0074 32.4637L64.0078 30.4637L64.0082 28.4637C61.2028 28.4631 57.7792 29.0831 55.1527 29.6667C53.819 29.963 52.6517 30.2591 51.8169 30.4812C51.3991 30.5924 51.0635 30.6854 50.8308 30.751C50.7144 30.7839 50.6236 30.8099 50.5611 30.828C50.5298 30.837 50.5056 30.844 50.4888 30.849C50.4804 30.8514 50.4738 30.8533 50.4691 30.8547C50.4667 30.8554 50.4649 30.856 50.4634 30.8564C50.4627 30.8566 50.4622 30.8568 50.4617 30.8569C50.4615 30.857 50.4612 30.857 50.4611 30.8571C50.4609 30.8571 50.4607 30.8572 51.0271 32.7753ZM64.0078 30.4637L64.0074 32.4637C66.3484 32.4641 69.4114 33 71.985 33.5722C73.2513 33.8538 74.3623 34.1356 75.1559 34.3469C75.5523 34.4525 75.8684 34.5401 76.0838 34.6009C76.1915 34.6313 76.2739 34.6549 76.3286 34.6707C76.3559 34.6786 76.3762 34.6845 76.3893 34.6884C76.3959 34.6903 76.4006 34.6917 76.4035 34.6925C76.4049 34.6929 76.4059 34.6932 76.4064 34.6934C76.4066 34.6934 76.4068 34.6935 76.4068 34.6935C76.4068 34.6935 76.4067 34.6935 76.4067 34.6935C76.4066 34.6934 76.4065 34.6934 76.973 32.7753C77.5396 30.8572 77.5394 30.8572 77.5392 30.8571C77.5391 30.8571 77.5388 30.857 77.5386 30.8569C77.5381 30.8568 77.5375 30.8566 77.5369 30.8564C77.5355 30.856 77.5336 30.8555 77.5312 30.8548C77.5265 30.8534 77.52 30.8515 77.5116 30.849C77.4947 30.8441 77.4705 30.837 77.4393 30.828C77.3769 30.81 77.2862 30.784 77.17 30.7512C76.9375 30.6856 76.6023 30.5927 76.185 30.4816C75.3513 30.2596 74.1853 29.9638 72.8532 29.6676C70.2299 29.0843 66.8103 28.4642 64.0082 28.4637L64.0078 30.4637ZM71.7838 64.0939H69.7838C69.7838 67.2882 67.1944 69.8776 64.0001 69.8776V71.8776V73.8776C69.4035 73.8776 73.7838 69.4973 73.7838 64.0939H71.7838ZM64.0001 71.8776V69.8776C60.8058 69.8776 58.2163 67.2882 58.2163 64.0939H56.2163H54.2163C54.2163 69.4973 58.5966 73.8776 64.0001 73.8776V71.8776ZM56.2163 64.0939H58.2163C58.2163 60.8996 60.8058 58.3101 64.0001 58.3101V56.3101V54.3101C58.5966 54.3101 54.2163 58.6904 54.2163 64.0939H56.2163ZM64.0001 56.3101V58.3101C67.1944 58.3101 69.7838 60.8996 69.7838 64.0939H71.7838H73.7838C73.7838 58.6904 69.4035 54.3101 64.0001 54.3101V56.3101ZM105.514 63.9999H103.514C103.514 85.8226 85.8228 103.513 64.0001 103.513V105.513V107.513C88.0319 107.513 107.514 88.0318 107.514 63.9999H105.514ZM64.0001 105.513V103.513C42.1774 103.513 24.4866 85.8226 24.4866 63.9999H22.4866H20.4866C20.4866 88.0318 39.9682 107.513 64.0001 107.513V105.513ZM22.4866 63.9999H24.4866C24.4866 42.1772 42.1774 24.4864 64.0001 24.4864V22.4864V20.4864C39.9682 20.4864 20.4866 39.9681 20.4866 63.9999H22.4866ZM64.0001 22.4864V24.4864C85.8228 24.4864 103.514 42.1772 103.514 63.9999H105.514H107.514C107.514 39.9681 88.0319 20.4864 64.0001 20.4864V22.4864ZM112 63.9999H110C110 89.405 89.4052 110 64.0001 110V112V114C91.6143 114 114 91.6142 114 63.9999H112ZM64.0001 112V110C38.595 110 18.0001 89.405 18.0001 63.9999H16.0001H14.0001C14.0001 91.6142 36.3859 114 64.0001 114V112ZM16.0001 63.9999H18.0001C18.0001 38.5948 38.595 17.9999 64.0001 17.9999V15.9999V13.9999C36.3859 13.9999 14.0001 36.3857 14.0001 63.9999H16.0001ZM64.0001 15.9999V17.9999C89.4052 17.9999 110 38.5948 110 63.9999H112H114C114 36.3857 91.6143 13.9999 64.0001 13.9999V15.9999Z" fill="var(--stroke-0, #C0E2FF)"/>
</g>
</svg>
